<?xml version="1.0" standalone="no"?>
<!DOCTYPE svg PUBLIC "-//W3C//DTD SVG 20010904//EN"
 "http://www.w3.org/TR/2001/REC-SVG-20010904/DTD/svg10.dtd">
<svg version="1.0" xmlns="http://www.w3.org/2000/svg"
 width="256.000000pt" height="256.000000pt" viewBox="0 0 256.000000 256.000000"
 preserveAspectRatio="xMidYMid meet">
<metadata>
Created by potrace 1.11, written by Peter Selinger 2001-2013
</metadata>
<g transform="translate(0.000000,256.000000) scale(0.100000,-0.100000)"
fill="#000000" stroke="none">
<path d="M1585 2444 c-203 -35 -428 -72 -500 -83 l-130 -19 -243 30 c-269 34
-288 33 -298 -22 l-6 -30 -80 0 -79 0 -20 -35 c-17 -29 -27 -35 -53 -35 -29 0
-66 -24 -66 -43 0 -4 -9 -16 -20 -27 -11 -11 -20 -29 -20 -41 0 -11 34 -220
75 -463 l75 -442 0 -215 c0 -160 -5 -259 -22 -392 l-21 -177 21 -23 c12 -13
22 -35 22 -50 0 -32 33 -57 76 -57 25 0 33 -5 38 -23 3 -13 27 -37 55 -55 l49
-32 287 49 287 49 551 -69 c304 -38 556 -69 560 -69 4 0 19 11 32 25 18 17 25
35 25 62 0 21 9 55 20 76 12 22 20 56 20 86 l0 48 40 7 c28 4 45 14 57 33 10
15 26 36 36 45 9 10 17 24 17 31 -1 6 -20 124 -44 262 l-43 250 63 505 c35
278 64 511 64 518 0 30 -38 49 -114 57 l-76 7 0 53 c0 60 -21 85 -72 85 -29 0
-31 4 -42 85 -3 22 -13 44 -22 50 -9 6 -29 20 -44 33 -16 12 -41 22 -56 21
-16 0 -195 -30 -399 -65z m387 -134 c14 -89 14 -90 -6 -90 -28 1 -612 77 -606
79 12 5 557 98 576 100 19 1 23 -8 36 -89z m-561 -130 c485 -61 884 -111 885
-113 3 -3 -216 -1780 -220 -1784 -3 -3 -1780 218 -1784 222 -3 3 200 1658 214
1748 3 20 10 37 14 37 5 0 406 -50 891 -110z m-1033 -87 c-3 -21 -23 -178 -44
-350 -21 -172 -39 -311 -41 -310 -6 7 -113 660 -109 665 7 7 131 29 170 31 27
1 28 -1 24 -36z m1875 -1435 c4 -29 2 -38 -9 -38 -15 0 -19 35 -8 65 8 21 10
18 17 -27z m-1638 -306 c6 -4 -21 -12 -60 -18 -38 -7 -71 -11 -71 -10 -1 0 -5
12 -9 24 -7 24 -7 24 62 17 37 -4 73 -10 78 -13z"/>
<path d="M1301 2113 c-5 -10 -57 -121 -116 -248 -59 -126 -110 -233 -113 -236
-4 -4 -128 9 -276 28 -149 18 -276 31 -284 28 -34 -13 -1 -56 163 -209 94 -87
183 -171 199 -186 l29 -28 -118 -251 c-67 -143 -115 -257 -112 -266 4 -8 15
-15 26 -15 10 0 126 59 256 132 l236 131 47 -45 c181 -172 362 -338 370 -338
5 0 15 7 22 15 10 12 2 67 -40 286 -28 149 -50 272 -48 274 1 1 109 61 238
133 129 71 239 137 244 145 22 34 -13 43 -291 77 l-271 33 -16 81 c-56 301
-87 460 -92 467 -9 15 -43 10 -53 -8z m63 -358 c25 -126 50 -231 57 -235 7 -5
55 -13 108 -20 53 -6 157 -19 231 -29 l135 -17 -55 -32 c-30 -17 -123 -69
-207 -114 -84 -46 -155 -88 -157 -95 -3 -7 15 -114 39 -240 25 -125 43 -228
42 -230 -2 -1 -80 69 -174 157 -94 88 -177 160 -185 160 -7 0 -103 -50 -213
-110 -109 -60 -200 -108 -202 -106 -2 1 38 90 87 196 50 106 93 205 96 219 5
24 -12 43 -165 186 -94 87 -169 160 -167 162 2 3 106 -8 230 -24 153 -18 232
-24 242 -18 9 6 59 103 112 217 53 114 98 205 100 204 1 -2 22 -106 46 -231z"/>
<path d="M1657 1429 c-45 -23 -56 -45 -35 -66 14 -13 21 -12 67 12 42 21 52
30 49 48 -4 29 -34 32 -81 6z"/>
<path d="M1456 1328 l-88 -50 7 -52 c3 -28 11 -78 18 -111 11 -54 14 -60 37
-60 22 0 25 4 24 35 0 19 -4 62 -8 96 l-8 61 76 42 c64 35 77 46 74 64 -5 36
-37 30 -132 -25z"/>
</g>
</svg>
