<?xml version="1.0" standalone="no"?>
<!DOCTYPE svg PUBLIC "-//W3C//DTD SVG 20010904//EN"
 "http://www.w3.org/TR/2001/REC-SVG-20010904/DTD/svg10.dtd">
<svg version="1.0" xmlns="http://www.w3.org/2000/svg"
 width="256.000000pt" height="256.000000pt" viewBox="0 0 256.000000 256.000000"
 preserveAspectRatio="xMidYMid meet">
<metadata>
Created by potrace 1.11, written by Peter Selinger 2001-2013
</metadata>
<g transform="translate(0.000000,256.000000) scale(0.100000,-0.100000)"
fill="#000000" stroke="none">
<path d="M1855 2490 c-55 -9 -118 -20 -140 -24 -22 -4 -92 -16 -155 -27 -63
-11 -131 -22 -150 -25 -19 -3 -100 -17 -180 -30 -80 -14 -165 -28 -190 -30
-25 -3 -51 -7 -58 -9 -12 -5 -151 8 -212 20 -14 2 -50 6 -80 9 -30 3 -65 8
-77 10 -12 3 -53 7 -91 11 -63 6 -73 4 -91 -14 -12 -12 -21 -30 -21 -41 0 -17
-8 -19 -83 -22 -80 -3 -82 -4 -97 -33 -12 -23 -23 -31 -50 -33 -34 -4 -70 -26
-70 -44 0 -4 -10 -18 -21 -29 -22 -22 -22 -50 -4 -149 2 -14 14 -81 25 -150
24 -141 28 -166 34 -196 2 -12 7 -38 10 -58 3 -20 9 -52 12 -72 3 -20 8 -46
10 -58 2 -11 9 -50 15 -86 6 -36 14 -78 17 -95 10 -42 9 -558 -1 -625 -4 -30
-9 -68 -11 -85 -19 -131 -19 -163 3 -181 12 -11 21 -30 21 -46 0 -33 32 -58
75 -58 24 0 33 -6 43 -28 7 -16 23 -34 37 -40 14 -6 25 -16 25 -21 0 -16 47
-21 101 -10 30 5 70 12 89 15 19 2 49 7 65 11 17 3 39 7 50 9 19 2 180 29 255
42 19 3 49 6 65 6 27 0 52 -3 175 -19 19 -2 58 -7 85 -11 28 -3 59 -7 70 -9
11 -1 47 -6 80 -10 33 -4 71 -8 85 -10 14 -2 51 -7 83 -10 32 -4 67 -8 79 -10
11 -3 53 -7 92 -11 39 -3 73 -8 76 -9 3 -2 37 -6 75 -10 39 -3 77 -8 85 -10 8
-2 40 -7 71 -10 53 -6 58 -5 78 21 13 16 21 41 21 63 0 20 9 53 20 74 12 23
20 56 20 87 0 41 3 50 18 51 39 2 58 9 75 31 9 13 27 34 38 47 21 25 21 29 5
121 -64 350 -75 450 -61 520 3 14 7 48 10 75 5 43 46 374 60 488 3 20 7 56 10
80 3 23 7 58 10 77 3 19 7 53 9 75 3 22 8 63 11 90 9 73 -11 90 -109 100 l-76
7 0 47 c0 60 -16 82 -66 90 l-39 6 -7 60 c-5 39 -13 63 -24 70 -9 6 -29 20
-44 33 -32 26 -49 26 -185 2z"/>
</g>
</svg>
